<?xml version="1.0" standalone="no"?>
<!DOCTYPE svg PUBLIC "-//W3C//DTD SVG 20010904//EN"
 "http://www.w3.org/TR/2001/REC-SVG-20010904/DTD/svg10.dtd">
<svg version="1.0" xmlns="http://www.w3.org/2000/svg"
 width="2432.000000pt" height="2432.000000pt" viewBox="0 0 2432.000000 2432.000000"
 preserveAspectRatio="xMidYMid meet">
<metadata>
Created by potrace 1.14, written by Peter Selinger 2001-2017
</metadata>
<g transform="translate(0.000000,2432.000000) scale(0.100000,-0.100000)"
fill="#000000" stroke="none">
<path d="M3039 15355 c-2 -2 -37 -6 -77 -9 -41 -4 -88 -9 -105 -11 -18 -3 -50
-7 -72 -10 -76 -11 -126 -19 -175 -30 -14 -4 -34 -7 -45 -9 -11 -2 -29 -6 -40
-9 -11 -3 -33 -9 -50 -12 -16 -3 -35 -7 -42 -9 -7 -1 -16 -5 -19 -9 -4 -4 -16
-7 -26 -7 -24 0 -348 -107 -364 -121 -6 -5 -20 -11 -30 -13 -11 -2 -59 -22
-107 -45 -49 -23 -92 -41 -97 -41 -4 0 -10 -3 -12 -7 -1 -5 -41 -28 -88 -52
-47 -24 -109 -59 -138 -78 -29 -18 -55 -33 -58 -33 -2 0 -10 -4 -17 -10 -7 -5
-64 -46 -127 -91 -112 -79 -249 -188 -301 -239 -14 -14 -54 -53 -90 -86 -35
-34 -93 -94 -129 -134 -36 -40 -70 -78 -75 -84 -6 -6 -28 -33 -50 -61 -22 -27
-42 -52 -45 -55 -15 -15 -134 -186 -177 -255 -81 -130 -183 -321 -183 -342 0
-7 -4 -13 -10 -13 -5 0 -10 -7 -10 -15 0 -9 -11 -37 -25 -64 -13 -27 -21 -51
-18 -55 4 -3 1 -6 -5 -6 -7 0 -12 -6 -12 -13 0 -7 -14 -48 -31 -92 -17 -44
-32 -87 -34 -95 -2 -9 -16 -56 -31 -105 -15 -50 -29 -94 -30 -100 -1 -5 -13
-66 -27 -135 -15 -69 -29 -147 -32 -175 -3 -27 -8 -59 -10 -71 -26 -121 -26
-668 -1 -785 3 -13 8 -44 11 -69 10 -82 22 -142 57 -290 26 -110 24 -103 30
-120 16 -43 79 -238 83 -254 2 -11 9 -24 15 -30 5 -5 10 -16 10 -23 0 -41 181
-388 288 -553 36 -54 171 -240 182 -250 3 -3 24 -27 45 -55 46 -58 297 -311
370 -374 39 -33 165 -129 300 -229 6 -4 46 -29 90 -56 44 -27 91 -56 105 -64
14 -9 27 -15 29 -13 2 1 7 -1 10 -6 8 -13 254 -135 316 -158 28 -10 55 -22 60
-26 17 -11 359 -125 406 -134 8 -2 44 -10 80 -18 35 -9 78 -18 94 -21 17 -3
46 -9 65 -12 19 -4 42 -7 50 -9 8 -1 38 -5 65 -9 28 -4 61 -10 75 -12 167 -26
639 -26 815 1 17 3 48 7 70 10 84 11 246 41 275 50 10 3 27 8 39 10 90 17 320
92 461 150 127 52 302 136 312 150 4 5 8 7 8 3 0 -13 280 160 374 232 18 14
45 34 61 45 30 22 146 118 210 175 91 81 249 248 337 356 194 237 354 506 473
789 7 17 18 44 25 60 13 31 89 256 96 284 2 9 15 61 30 116 14 55 27 111 28
125 3 22 17 106 21 120 1 3 5 37 9 75 5 39 10 84 13 100 20 133 19 641 -1 673
-2 4 -7 34 -10 67 -5 54 -14 111 -31 200 -18 92 -70 285 -105 385 -22 63 -42
120 -43 125 -2 6 -11 27 -20 49 -9 21 -17 41 -17 45 0 4 -9 24 -20 46 -11 22
-20 45 -20 52 0 7 -4 13 -10 13 -5 0 -10 6 -10 13 -1 20 -121 250 -146 278 -8
8 -14 19 -14 23 0 10 -118 184 -177 261 -5 6 -24 30 -42 55 -19 25 -39 50 -45
55 -6 6 -36 39 -66 75 -47 55 -242 253 -282 285 -7 6 -42 35 -78 66 -219 185
-480 346 -782 482 -134 61 -461 170 -572 191 -12 2 -32 7 -46 10 -14 3 -37 8
-52 11 -16 3 -38 7 -50 9 -13 3 -39 7 -58 10 -19 3 -46 8 -60 11 -14 3 -52 7
-85 10 -33 3 -76 8 -95 11 -38 6 -536 15 -541 9z"/>
<path d="M7332 13243 l0 -224 52 2 c28 1 56 0 61 -1 6 -1 15 -2 20 -1 14 3
289 3 300 0 6 -1 15 -1 20 1 21 3 269 -1 273 -5 3 -3 5 -500 5 -1105 l-1
-1100 279 0 279 0 0 1104 0 1104 46 4 c25 2 51 0 57 -4 6 -4 15 -4 20 -1 7 4
279 7 302 2 6 -1 15 -1 20 0 6 1 71 3 145 4 l135 2 0 220 0 220 -1007 1 -1006
1 0 -224z"/>
<path d="M9772 13454 c-67 -14 -110 -39 -155 -88 -42 -47 -58 -91 -64 -169 -5
-62 -2 -80 19 -127 46 -101 133 -160 245 -165 66 -3 140 12 161 32 7 7 17 13
21 13 16 0 71 61 91 100 12 23 23 57 25 75 3 19 6 38 7 42 7 30 -19 125 -47
169 -66 102 -174 144 -303 118z"/>
<path d="M21535 13430 c-6 -10 -3 -2650 3 -2651 4 0 120 0 257 -1 l250 0 2
1326 c1 729 -2 1327 -5 1327 -23 4 -504 3 -507 -1z"/>
<path d="M11369 12724 c-101 -16 -143 -31 -212 -76 -64 -43 -117 -95 -153
-150 -13 -20 -27 -39 -32 -41 -4 -3 -7 38 -7 91 1 53 -1 103 -3 110 -3 9 -64
12 -258 12 l-254 0 0 -922 0 -923 252 1 c139 1 256 2 259 3 3 0 5 259 5 574 1
662 1 675 51 765 37 66 60 88 117 113 52 23 155 30 221 15 35 -9 114 -66 115
-83 0 -7 4 -13 9 -13 10 0 38 -66 55 -131 9 -33 12 -209 12 -642 -1 -391 2
-597 9 -598 40 -4 505 -3 506 1 1 3 2 275 3 605 2 455 5 611 15 645 42 144
137 223 271 224 84 0 120 -7 169 -35 55 -30 100 -98 117 -174 14 -62 17 -152
18 -685 l1 -584 245 -1 c135 -1 251 1 258 3 10 3 12 142 12 686 -1 374 -5 699
-10 721 -5 22 -11 56 -14 75 -9 59 -23 98 -57 156 -31 55 -130 164 -149 164
-4 0 -15 6 -22 13 -14 14 -125 60 -168 70 -50 12 -126 20 -185 20 -202 0 -340
-49 -455 -163 -36 -36 -72 -76 -80 -88 -36 -57 -35 -57 -54 -17 -38 79 -129
166 -221 209 -116 56 -245 72 -386 50z"/>
<path d="M16208 12724 c-2 -1 -19 -6 -38 -9 -245 -43 -430 -151 -534 -312 -25
-40 -46 -78 -46 -86 0 -7 -3 -17 -7 -21 -5 -4 -8 -11 -9 -14 0 -4 -6 -34 -13
-67 -16 -72 -10 -201 13 -263 24 -68 84 -149 141 -194 43 -33 188 -119 198
-117 3 0 33 -10 80 -27 20 -8 37 -11 37 -9 0 3 8 1 18 -4 10 -5 38 -12 62 -16
25 -4 47 -8 50 -10 3 -2 22 -6 42 -9 51 -8 333 -72 333 -76 0 -1 9 -3 20 -5
39 -5 109 -36 142 -61 76 -58 90 -131 37 -189 -22 -24 -74 -58 -74 -49 0 4 -6
2 -12 -4 -45 -36 -325 -55 -438 -29 -104 24 -359 127 -368 149 -2 4 -9 8 -16
8 -7 0 -31 13 -54 29 l-40 30 -36 -42 c-189 -224 -252 -317 -215 -317 5 0 32
-15 61 -33 65 -40 165 -88 278 -132 111 -43 123 -48 135 -50 6 -1 31 -10 56
-18 158 -54 469 -70 638 -33 228 50 407 163 492 312 44 77 60 138 64 244 3 79
0 106 -19 161 -41 119 -117 211 -234 286 -45 29 -152 84 -172 89 -3 0 -14 4
-25 8 -45 17 -74 26 -145 46 -41 12 -82 23 -90 25 -8 2 -35 8 -60 14 -25 7
-56 14 -70 17 -76 15 -171 38 -215 52 -27 9 -52 17 -55 17 -48 13 -99 54 -108
90 -22 80 55 152 200 191 46 12 224 13 299 2 86 -13 238 -80 342 -150 47 -32
60 -37 70 -26 20 22 152 171 178 202 13 15 39 44 58 62 18 19 31 40 28 48 -13
33 -300 197 -360 205 -4 0 -20 7 -35 14 -26 14 -157 49 -232 63 -36 7 -347 14
-352 8z"/>
<path d="M14307 12704 c-1 -1 -33 -4 -71 -8 -69 -6 -212 -38 -251 -55 -82 -37
-141 -66 -143 -73 -2 -4 -8 -8 -13 -8 -29 0 -249 -194 -249 -220 0 -5 -4 -10
-8 -10 -10 0 -82 -111 -103 -157 -8 -18 -17 -33 -20 -33 -3 0 -6 -6 -6 -12 -1
-7 -11 -40 -23 -73 -12 -33 -24 -69 -26 -80 -2 -11 -9 -45 -16 -75 -17 -83
-14 -331 6 -415 10 -38 20 -81 23 -95 10 -44 79 -185 121 -247 50 -73 217
-243 239 -243 4 0 14 -6 22 -14 38 -34 230 -118 301 -131 3 0 37 -7 75 -15
117 -23 408 -18 504 10 17 5 35 9 39 10 95 12 279 105 376 190 77 67 174 176
165 185 -7 6 -242 116 -253 118 -6 1 -13 4 -16 7 -6 7 -125 60 -134 60 -3 0
-14 -8 -24 -17 -87 -82 -212 -140 -339 -158 -267 -36 -492 65 -599 267 -19 38
-33 68 -30 68 3 0 -1 15 -8 33 -26 67 -90 62 762 62 l772 0 1 30 c5 93 -3 223
-16 296 -8 39 -39 155 -45 169 -5 8 -16 35 -26 60 -22 55 -84 164 -96 168 -4
2 -8 8 -8 13 0 18 -132 153 -182 187 -13 9 -25 19 -28 22 -8 10 -120 74 -165
94 -22 9 -49 21 -60 26 -20 9 -134 39 -170 45 -69 11 -120 16 -193 19 -45 1
-83 2 -85 0z m224 -418 c163 -42 292 -151 354 -298 l15 -38 -526 0 -526 0 38
68 c21 37 42 72 48 78 6 6 20 23 31 38 38 52 164 130 229 142 16 3 32 7 36 9
4 2 27 7 50 10 24 3 45 7 47 8 8 8 152 -4 204 -17z"/>
<path d="M18288 12705 c-2 -2 -32 -6 -68 -9 -36 -3 -75 -8 -87 -11 -13 -3 -33
-7 -44 -10 -178 -39 -370 -147 -487 -276 -196 -216 -284 -505 -250 -824 22
-202 125 -414 271 -559 196 -193 457 -290 757 -282 93 3 131 7 205 23 11 2 30
6 42 9 51 10 182 64 243 99 104 61 200 139 186 152 -9 9 -220 233 -264 281
-16 17 -35 32 -41 32 -7 0 -34 -17 -61 -39 -50 -39 -122 -79 -158 -86 -11 -2
-35 -7 -53 -13 -63 -16 -184 -7 -279 23 -57 18 -210 127 -210 149 0 4 -9 16
-20 28 -11 12 -20 28 -20 35 0 7 -4 13 -9 13 -5 0 -11 8 -14 18 -3 9 -15 43
-26 76 -12 32 -18 62 -16 66 3 5 1 11 -4 14 -14 9 -13 177 3 243 22 95 71 187
135 252 191 195 518 193 714 -4 12 -12 21 -8 63 28 27 23 62 53 78 67 38 32
118 104 175 157 l46 42 -32 28 c-17 15 -48 39 -68 53 -20 14 -42 31 -50 38 -7
6 -17 12 -21 12 -4 0 -15 6 -23 14 -38 34 -242 122 -306 132 -11 1 -45 7 -75
13 -51 10 -226 21 -232 16z"/>
<path d="M19976 12702 c-2 -2 -19 -5 -37 -7 -179 -22 -335 -85 -467 -190 -81
-63 -242 -263 -242 -299 0 -7 -7 -19 -15 -26 -8 -7 -15 -19 -15 -27 0 -8 -7
-28 -16 -44 -14 -27 -48 -147 -60 -209 -3 -14 -7 -92 -9 -175 -4 -186 18 -322
77 -452 12 -26 22 -51 22 -54 1 -4 23 -42 51 -85 54 -86 153 -191 228 -243 92
-63 234 -123 322 -137 17 -3 41 -8 55 -13 27 -8 253 -6 309 3 156 25 301 105
428 235 l62 64 3 -124 3 -124 257 0 256 0 0 923 c0 790 -2 923 -14 918 -8 -3
-14 -1 -14 4 0 5 -9 6 -22 1 -13 -4 -35 -5 -49 -1 -15 4 -32 4 -39 0 -7 -5
-23 -5 -34 0 -12 4 -30 4 -41 0 -11 -4 -26 -5 -32 -3 -18 7 -213 9 -213 3 0
-3 -12 -6 -27 -5 l-28 0 -3 -113 -3 -114 -52 54 c-29 30 -77 72 -107 95 -61
45 -170 109 -170 99 0 -4 -9 -2 -21 4 -11 6 -30 14 -42 16 -12 3 -26 6 -32 8
-49 13 -260 28 -269 18z m334 -446 c90 -26 141 -57 210 -126 81 -81 128 -172
147 -285 13 -77 8 -211 -10 -290 -11 -44 -49 -136 -63 -149 -8 -8 -14 -17 -14
-21 0 -14 -68 -94 -107 -126 -48 -38 -155 -100 -162 -94 -2 3 -11 -1 -19 -8
-10 -8 -52 -12 -126 -12 -118 0 -167 12 -251 63 -98 59 -204 207 -231 322 -4
19 -9 42 -11 50 -9 33 -9 217 -1 250 10 40 13 53 24 95 23 92 117 219 206 278
30 21 106 50 178 70 33 9 179 -2 230 -17z"/>
<path d="M23165 12682 c-2 -3 -24 -7 -47 -9 -48 -5 -194 -45 -224 -61 -10 -6
-36 -18 -57 -27 -64 -28 -196 -123 -262 -190 -72 -72 -211 -287 -199 -306 3
-5 0 -9 -7 -9 -7 0 -10 -3 -6 -6 3 -4 -1 -23 -9 -43 -18 -42 -22 -59 -44 -186
-9 -51 -7 -313 3 -351 3 -11 13 -51 23 -90 9 -38 20 -76 25 -84 4 -8 22 -46
40 -85 18 -38 35 -72 38 -75 3 -3 20 -25 36 -49 45 -67 172 -190 247 -240 36
-24 70 -43 74 -41 3 1 10 -2 13 -8 6 -8 133 -62 156 -66 5 -1 15 -4 20 -8 6
-3 28 -9 50 -13 22 -4 49 -10 60 -12 110 -23 361 -22 475 2 14 3 36 7 50 10
61 9 266 91 290 115 3 3 25 19 49 35 51 34 175 154 209 203 l23 32 -23 9 c-13
5 -66 29 -118 53 -52 25 -117 55 -145 67 -27 13 -62 29 -77 37 -38 20 -44 19
-106 -30 -64 -50 -164 -99 -238 -117 -74 -17 -236 -19 -312 -3 -153 32 -289
133 -352 261 -18 36 -33 72 -35 81 -2 9 -4 17 -5 17 -1 0 -4 14 -6 32 l-5 32
773 -1 773 0 0 128 c1 71 -1 134 -4 139 -3 6 -6 19 -7 30 -8 70 -47 204 -85
283 -73 157 -179 279 -331 383 -110 75 -259 130 -418 155 -50 8 -298 13 -305
6z m270 -406 c43 -8 117 -33 150 -51 113 -60 216 -175 238 -266 l7 -27 -520 0
c-286 0 -520 2 -520 4 0 11 80 144 97 161 6 7 20 23 30 36 25 31 97 80 158
106 100 43 247 58 360 37z"/>
<path d="M9599 12650 l-24 -5 1 -905 c1 -498 2 -911 3 -917 1 -10 59 -13 256
-13 140 0 255 3 256 8 4 31 3 1825 -1 1830 -6 8 -454 9 -491 2z"/>
</g>
</svg>
