<?xml version="1.0" encoding="utf-8"?>
<!-- Generator: Adobe Illustrator 15.0.0, SVG Export Plug-In . SVG Version: 6.00 Build 0)  -->
<!DOCTYPE svg PUBLIC "-//W3C//DTD SVG 1.1//EN" "http://www.w3.org/Graphics/SVG/1.1/DTD/svg11.dtd">
<svg version="1.1" id="Capa_1" xmlns="http://www.w3.org/2000/svg" xmlns:xlink="http://www.w3.org/1999/xlink" x="0px" y="0px"
	 width="600px" height="600px" viewBox="0 0 600 600" enable-background="new 0 0 600 600" xml:space="preserve">
<g>
	<path fill="#DCD4B6" d="M500,423.138C500,465.589,465.587,500,423.139,500H176.862C134.412,500,100,465.589,100,423.138V176.86
		c0-42.449,34.412-76.86,76.862-76.86h246.276C465.587,100,500,134.411,500,176.86V423.138z"/>
	<path fill="#D3CAAC" d="M500,423.138V277.2l-75.116-81.616v41.715l-6.725,166.726H175.117L270.862,500h152.277
		C465.587,500,500,465.589,500,423.138z"/>
	<g>
		<path fill="#9F4456" d="M411.06,191.462H188.937c-17.657,0-31.972,14.314-31.972,31.973v153.129
			c0,17.659,14.315,31.974,31.972,31.974H411.06c17.66,0,31.975-14.314,31.975-31.974V223.435
			C443.034,205.776,428.72,191.462,411.06,191.462z M212.215,371.202c0,3.719-3.014,6.732-6.73,6.732h-19.632
			c-3.718,0-6.731-3.014-6.731-6.732v-17.888c0-3.716,3.014-6.73,6.731-6.73h19.632c3.716,0,6.73,3.015,6.73,6.73V371.202z
			 M212.215,329.697c0,3.716-3.014,6.729-6.73,6.729h-19.632c-3.718,0-6.731-3.014-6.731-6.729v-17.889
			c0-3.716,3.014-6.729,6.731-6.729h19.632c3.716,0,6.73,3.014,6.73,6.729V329.697z M212.215,288.189
			c0,3.718-3.014,6.732-6.73,6.732h-19.632c-3.718,0-6.731-3.014-6.731-6.732v-17.888c0-3.716,3.014-6.73,6.731-6.73h19.632
			c3.716,0,6.73,3.014,6.73,6.73V288.189z M212.215,246.683c0,3.717-3.014,6.73-6.73,6.73h-19.632c-3.718,0-6.731-3.014-6.731-6.73
			v-17.888c0-3.718,3.014-6.732,6.731-6.732h19.632c3.716,0,6.73,3.014,6.73,6.732V246.683z M420.876,371.202
			c0,3.719-3.014,6.732-6.732,6.732h-19.629c-3.719,0-6.732-3.014-6.732-6.732v-17.888c0-3.716,3.014-6.73,6.732-6.73h19.629
			c3.719,0,6.732,3.015,6.732,6.73V371.202z M420.876,329.697c0,3.716-3.014,6.729-6.732,6.729h-19.629
			c-3.719,0-6.732-3.014-6.732-6.729v-17.889c0-3.716,3.014-6.729,6.732-6.729h19.629c3.719,0,6.732,3.014,6.732,6.729V329.697z
			 M420.876,288.189c0,3.718-3.014,6.732-6.732,6.732h-19.629c-3.719,0-6.732-3.014-6.732-6.732v-17.888
			c0-3.716,3.014-6.73,6.732-6.73h19.629c3.719,0,6.732,3.014,6.732,6.73V288.189z M420.876,246.683c0,3.717-3.014,6.73-6.732,6.73
			h-19.629c-3.719,0-6.732-3.014-6.732-6.73v-17.888c0-3.718,3.014-6.732,6.732-6.732h19.629c3.719,0,6.732,3.014,6.732,6.732
			V246.683z"/>
		<path fill="none" d="M205.485,263.571h-19.632c-3.718,0-6.731,3.014-6.731,6.73v17.888c0,3.718,3.014,6.732,6.731,6.732h19.632
			c3.716,0,6.73-3.014,6.73-6.732v-17.888C212.215,266.585,209.202,263.571,205.485,263.571z"/>
		<path fill="none" d="M205.485,222.063h-19.632c-3.718,0-6.731,3.014-6.731,6.732v17.888c0,3.717,3.014,6.73,6.731,6.73h19.632
			c3.716,0,6.73-3.014,6.73-6.73v-17.888C212.215,225.077,209.202,222.063,205.485,222.063z"/>
		<path fill="none" d="M205.485,346.584h-19.632c-3.718,0-6.731,3.015-6.731,6.73v17.888c0,3.719,3.014,6.732,6.731,6.732h19.632
			c3.716,0,6.73-3.014,6.73-6.732v-17.888C212.215,349.599,209.202,346.584,205.485,346.584z"/>
		<path fill="none" d="M414.144,346.584h-19.629c-3.719,0-6.732,3.015-6.732,6.73v17.888c0,3.719,3.014,6.732,6.732,6.732h19.629
			c3.719,0,6.732-3.014,6.732-6.732v-17.888C420.876,349.599,417.862,346.584,414.144,346.584z"/>
		<path fill="none" d="M205.485,305.079h-19.632c-3.718,0-6.731,3.014-6.731,6.729v17.889c0,3.716,3.014,6.729,6.731,6.729h19.632
			c3.716,0,6.73-3.014,6.73-6.729v-17.889C212.215,308.093,209.202,305.079,205.485,305.079z"/>
		<path fill="none" d="M414.144,222.063h-19.629c-3.719,0-6.732,3.014-6.732,6.732v17.888c0,3.717,3.014,6.73,6.732,6.73h19.629
			c3.719,0,6.732-3.014,6.732-6.73v-17.888C420.876,225.077,417.862,222.063,414.144,222.063z"/>
		<path fill="none" d="M414.144,305.079h-19.629c-3.719,0-6.732,3.014-6.732,6.729v17.889c0,3.716,3.014,6.729,6.732,6.729h19.629
			c3.719,0,6.732-3.014,6.732-6.729v-17.889C420.876,308.093,417.862,305.079,414.144,305.079z"/>
		<path fill="none" d="M414.144,263.571h-19.629c-3.719,0-6.732,3.014-6.732,6.73v17.888c0,3.718,3.014,6.732,6.732,6.732h19.629
			c3.719,0,6.732-3.014,6.732-6.732v-17.888C420.876,266.585,417.862,263.571,414.144,263.571z"/>
		<rect x="231.848" y="191.462" fill="#4D3D4D" width="136.301" height="217.076"/>
		<path fill="#9F4456" d="M378.529,302.777c0,3.717-3.014,6.73-6.732,6.73H228.202c-3.717,0-6.73-3.014-6.73-6.73v-5.557
			c0-3.716,3.013-6.73,6.73-6.73h143.595c3.719,0,6.732,3.014,6.732,6.73V302.777z"/>
	</g>
</g>
</svg>
